# Made in Blockbench 4.12.6
mtllib materials.mtl

o Mid
v 0.84375 1.53125 0.71875
v 0.84375 1.53125 -0.84375
v 0.84375 -0.03125 0.71875
v 0.84375 -0.03125 -0.84375
v -0.71875 1.53125 0.71875
v -0.71875 1.53125 -0.84375
v -0.71875 -0.03125 0.71875
v -0.71875 -0.03125 -0.84375
vt 0.37890625 1
vt 0.19140625 1
vt 0.19140625 0.84375
vt 0.37890625 0.84375
vt 0.37890625 0.68359375
vt 0.37890625 0.83984375
vt 0.19140625 0.83984375
vt 0.19140625 0.68359375
vt 0 0.8125
vt 0.1875 0.8125
vt 0.1875 1
vt 0 1
vt 0.1875 0.62109375
vt 0.1875 0.80859375
vt 0 0.80859375
vt 0 0.62109375
vt 0.37890625 0.5234375
vt 0.37890625 0.6796875
vt 0.19140625 0.6796875
vt 0.19140625 0.5234375
vt 0.1875 0.6171875
vt 0 0.6171875
vt 0 0.4609375
vt 0.1875 0.4609375
vn 1 0 0
vn -1 0 0
vn 0 1 0
vn 0 -1 0
vn 0 0 1
vn 0 0 -1
usemtl m_bf59ab19-e5f0-a052-06f4-fb1cae810fd9
f 2/1/1 1/2/1 3/3/1 4/4/1
f 7/5/2 5/6/2 6/7/2 8/8/2
f 5/9/3 1/10/3 2/11/3 6/12/3
f 4/13/4 3/14/4 7/15/4 8/16/4
f 3/17/5 1/18/5 5/19/5 7/20/5
f 6/21/6 2/22/6 4/23/6 8/24/6